<svg width="28" height="22" viewBox="0 0 28 22" fill="none" xmlns="http://www.w3.org/2000/svg">
<path d="M25.1428 21.2857H2.85713C1.43428 21.2857 0.285706 20.1371 0.285706 18.7143V3.28571C0.285706 1.86285 1.43428 0.714279 2.85713 0.714279H25.1428C26.5657 0.714279 27.7143 1.86285 27.7143 3.28571V18.7143C27.7143 20.1371 26.5657 21.2857 25.1428 21.2857ZM2.85713 2.42856C2.37713 2.42856 1.99999 2.80571 1.99999 3.28571V18.7143C1.99999 19.1943 2.37713 19.5714 2.85713 19.5714H25.1428C25.6228 19.5714 26 19.1943 26 18.7143V3.28571C26 2.80571 25.6228 2.42856 25.1428 2.42856H2.85713Z" fill="#F1F2F3"/>
<path d="M14 14.36C12.8 14.36 11.7029 13.88 10.88 13.0057L1.88 3.44001C1.55429 3.09715 1.57143 2.54858 1.91429 2.22286C2.25714 1.89715 2.80571 1.91429 3.13143 2.25715L12.1314 11.8229C13.1086 12.8686 14.8914 12.8686 15.8686 11.8229L24.8686 2.27429C25.1943 1.93144 25.7429 1.91429 26.0857 2.24001C26.4286 2.56572 26.4457 3.11429 26.12 3.45715L17.12 13.0229C16.2971 13.8972 15.2 14.3772 14 14.3772V14.36Z" fill="#F1F2F3"/>
</svg>
