<svg width="20" height="21" viewBox="0 0 20 21" fill="none" xmlns="http://www.w3.org/2000/svg">
<g clip-path="url(#clip0_58_297)">
<path d="M11.915 14.4007C11.8772 14.3647 11.8262 14.3445 11.7731 14.3445C11.7199 14.3445 11.669 14.3647 11.6312 14.4007L8.71333 17.2108C7.36237 18.5118 5.08231 18.6496 3.59073 17.2108C2.09664 15.7719 2.23977 13.5785 3.59073 12.2775L6.5086 9.46747C6.58645 9.3925 6.58645 9.26917 6.5086 9.1942L5.50919 8.23173C5.47144 8.19573 5.42045 8.17553 5.36732 8.17553C5.31418 8.17553 5.2632 8.19573 5.22544 8.23173L2.30757 11.0418C0.183194 13.0876 0.183194 16.3982 2.30757 18.4417C4.43194 20.4851 7.86961 20.4875 9.99147 18.4417L12.9093 15.6316C12.9872 15.5567 12.9872 15.4333 12.9093 15.3584L11.915 14.4007ZM18.4086 2.93813C16.2842 0.892273 12.8466 0.892273 10.7247 2.93813L7.80432 5.74817C7.76693 5.78453 7.74596 5.83363 7.74596 5.8848C7.74596 5.93597 7.76693 5.98507 7.80432 6.02143L8.80122 6.98148C8.87906 7.05645 9.00713 7.05645 9.08497 6.98148L12.0028 4.17145C13.3538 2.87042 15.6339 2.73258 17.1254 4.17145C18.6195 5.61032 18.4764 7.8037 17.1254 9.10473L14.2076 11.9148C14.1702 11.9511 14.1492 12.0002 14.1492 12.0514C14.1492 12.1026 14.1702 12.1517 14.2076 12.188L15.207 13.1505C15.2848 13.2255 15.4129 13.2255 15.4907 13.1505L18.4086 10.3405C20.5305 8.29461 20.5305 4.98399 18.4086 2.93813ZM12.8215 7.31279C12.7837 7.27678 12.7327 7.25659 12.6796 7.25659C12.6264 7.25659 12.5755 7.27678 12.5377 7.31279L6.85011 12.7878C6.81272 12.8241 6.79175 12.8732 6.79175 12.9244C6.79175 12.9756 6.81272 13.0247 6.85011 13.061L7.8445 14.0187C7.92234 14.0936 8.05041 14.0936 8.12825 14.0187L13.8133 8.54369C13.8912 8.46872 13.8912 8.34539 13.8133 8.27042L12.8215 7.31279Z" fill="#F1F2F3"/>
</g>
<defs>
<clipPath id="clip0_58_297">
<rect width="20" height="20" fill="white" transform="translate(0 0.689453)"/>
</clipPath>
</defs>
</svg>
