<svg width="22" height="22" viewBox="0 0 22 22" fill="none" xmlns="http://www.w3.org/2000/svg">
    <style>
        .white {
            stroke: #030a1d;
        }

        @media (prefers-color-scheme: dark) {
            .white {
                stroke: white
            }
        }
    </style>
    <path class="white"
        d="M15 21.027V18.157C15.0375 17.6802 14.9731 17.2008 14.811 16.7508C14.6489 16.3008 14.3929 15.8904 14.06 15.547C17.2 15.197 20.5 14.007 20.5 8.54701C20.4997 7.15083 19.9627 5.80821 19 4.79701C19.4558 3.57551 19.4236 2.22536 18.91 1.02701C18.91 1.02701 17.73 0.677007 15 2.50701C12.7079 1.88679 10.2921 1.88679 7.99999 2.50701C5.26999 0.677007 4.08999 1.02701 4.08999 1.02701C3.57636 2.22536 3.54413 3.57551 3.99999 4.79701C3.03011 5.81571 2.49251 7.17047 2.49999 8.57701C2.49999 13.997 5.79998 15.187 8.93998 15.577C8.61098 15.917 8.35725 16.3224 8.19529 16.7669C8.03334 17.2114 7.96679 17.6851 7.99999 18.157V21.027"
        stroke="white" stroke-width="1.5" stroke-linecap="round" stroke-linejoin="round" />
    <path class="white" d="M8 19.027C5 20 2.5 19.027 1 16.027" stroke="white" stroke-width="1.5" stroke-linecap="round"
        stroke-linejoin="round" />
</svg>