<svg width="25" height="24" viewBox="0 0 25 24" fill="none" xmlns="http://www.w3.org/2000/svg">
    <style>
        .white {
            stroke: #030a1d;
        }

        @media (prefers-color-scheme: dark) {
            .white {
                stroke: white
            }
        }
    </style>
    <path class="white"
        d="M22.0357 0.562495H2.53571C2.09326 0.557992 1.66711 0.729191 1.35074 1.03853C1.03438 1.34786 0.853645 1.77006 0.848206 2.21249V21.7912C0.854629 22.233 1.03579 22.6543 1.35205 22.9628C1.66831 23.2713 2.09391 23.442 2.53571 23.4375H22.0357C22.4782 23.441 22.904 23.2692 23.2202 22.9597C23.5364 22.6502 23.7173 22.2281 23.7232 21.7856V2.20687C23.7153 1.76574 23.5336 1.34555 23.2176 1.03763C22.9016 0.729716 22.4769 0.558966 22.0357 0.562495Z"
        stroke="white" stroke-width="2" />
    <path class="white"
        d="M4.23445 9.13687H7.63007V20.0625H4.23445V9.13687ZM5.9332 3.69937C6.32266 3.69937 6.70337 3.81488 7.02717 4.0313C7.35097 4.24771 7.60331 4.5553 7.75226 4.91515C7.90122 5.275 7.9401 5.67094 7.86398 6.0529C7.78786 6.43485 7.60017 6.78564 7.32465 7.0609C7.04913 7.33616 6.69815 7.52352 6.31613 7.59927C5.93411 7.67502 5.5382 7.63577 5.17849 7.48647C4.81878 7.33717 4.51143 7.08454 4.29533 6.76054C4.07923 6.43653 3.96408 6.05571 3.96445 5.66625C3.96494 5.14443 4.17259 4.64415 4.54174 4.27534C4.9109 3.90653 5.41138 3.69937 5.9332 3.69937ZM9.76007 9.13687H13.0151V10.6369H13.0601C13.5138 9.77812 14.6201 8.8725 16.2719 8.8725C19.7107 8.865 20.3482 11.1281 20.3482 14.0625V20.0625H16.9526V14.7469C16.9526 13.4812 16.9301 11.8519 15.1882 11.8519C13.4463 11.8519 13.1501 13.2319 13.1501 14.6644V20.0625H9.76007V9.13687Z"
        stroke="white" />
</svg>